<svg xmlns="http://www.w3.org/2000/svg" xmlns:xlink="http://www.w3.org/1999/xlink" width="402.5" height="181" viewBox="0 0 402.5 181">
    <defs>
        <clipPath id="a">
            <rect width="384" height="146" style="fill:none"/>
        </clipPath>
    </defs>
    <g transform="translate(-1326.5 -483)">
        <path d="M3346,487.094h358" transform="translate(-1975 75)" style="stroke-width:2px;stroke:#707070;fill:none"/>
        <path d="M1-121.863H31.379l30.379-12,37.024,13,59.808,7.5,20.269-8.5,42.387,16,26.581-7.5,29.429,7.5,41.967-18.1L357-117.934V-10H1V-120.5H1" transform="translate(1372 655)" style="fill-rule:evenodd;fill:none"/>
        <path d="M-1.909,24.285H58.424l30.892,3.687,28.752-3.687,31.782,2.564,33.14,1.123,27.939-2.934,32.381-.753,30.276,1.229,27.758-3,30.73,1.771,23.479,1" transform="translate(1373 531)" style="stroke:#00c3ff;stroke-linejoin:round;stroke-width:2px;fill:none"/>
        <g transform="translate(900 244)">
            <text class="e" transform="translate(466 385)">
                <tspan x="1.895" y="11">-5min</tspan>
            </text>
            <text class="e" transform="translate(533 385)">
                <tspan x="1.785" y="11">-4min</tspan>
            </text>
            <text class="e" transform="translate(599 385)">
                <tspan x="1.895" y="11">-3min</tspan>
            </text>
            <text class="e" transform="translate(666 385)">
                <tspan x="1.895" y="11">-2min</tspan>
            </text>
            <text class="e" transform="translate(732 385)">
                <tspan x="2.654" y="11">-1min</tspan>
            </text>
            <text class="e" transform="translate(799 385)">
                <tspan x="1.895" y="11">-0min</tspan>
            </text>
        </g>
        <text class="f" transform="translate(1515 650)">
            <tspan x="21.719" y="11">Time</tspan>
        </text>
        <text class="f" transform="translate(1326.5 590.5) rotate(-90)">
            <tspan x="13.313" y="11">Temp C</tspan>
        </text>
        <g transform="translate(1345 483)" style="clip-path:url(#a)">
            <g transform="translate(-445 -370)">
                <rect class="h" width="358" height="1" transform="translate(471 377)"/>
                <text class="e" transform="translate(445 370)">
                    <tspan x="5.313" y="11">150</tspan>
                </text>
            </g>
            <g transform="translate(-445 -348)">
                <rect class="h" width="358" height="1" transform="translate(471 377)"/>
                <text class="e" transform="translate(445 370)">
                    <tspan x="5.313" y="11">125</tspan>
                </text>
            </g>
            <g transform="translate(-445 -326)">
                <rect class="h" width="358" height="1" transform="translate(471 377)"/>
                <text class="e" transform="translate(445 370)">
                    <tspan x="5.313" y="11">100</tspan>
                </text>
            </g>
            <g transform="translate(-445 -304)">
                <rect class="h" width="358" height="1" transform="translate(471 377)"/>
                <text class="e" transform="translate(445 370)">
                    <tspan x="9.483" y="11">75</tspan>
                </text>
            </g>
            <g transform="translate(-445 -282)">
                <rect class="h" width="358" height="1" transform="translate(471 377)"/>
                <text class="e" transform="translate(445 370)">
                    <tspan x="9.263" y="11">50</tspan>
                </text>
            </g>
            <g transform="translate(-445 -260)">
                <rect class="h" width="358" height="1" transform="translate(471 377)"/>
                <text class="e" transform="translate(445 370)">
                    <tspan x="9.263" y="11">25</tspan>
                </text>
            </g>
            <g transform="translate(-445 -238)">
                <rect class="h" width="358" height="1" transform="translate(471 377)"/>
                <text class="e" transform="translate(445 370)">
                    <tspan x="14.731" y="11">0</tspan>
                </text>
            </g>
        </g>
    </g>
</svg>
