<svg xmlns="http://www.w3.org/2000/svg" width="16.008" height="14.005" viewBox="0 0 16.008 14.005">
    <path d="M54.846,1053H46.23c-.8,0-1.235-1.5-1.235-2.417v-11.174a.391.391,0,0,1,.364-.414H60.64a.391.391,0,0,1,.364.414v11.174c0,.913-.432,2.417-1.235,2.417ZM47,1051H59v-10H47Zm9.247-1.006c-.138,0-.249-.157-.249-.35v-6.306c0-.193.112-.351.249-.351h1.5c.138,0,.249.157.249.351v6.306c0,.193-.112.35-.249.35Zm-4.005,0c-.139,0-.253-.168-.253-.375v-5.246c0-.207.113-.374.253-.374h1.517c.139,0,.253.167.253.374v5.246c0,.207-.113.375-.253.375Zm-3.984,0c-.138,0-.249-.178-.249-.4v-3.187c0-.22.112-.4.249-.4h1.5c.138,0,.249.178.249.4v3.187c0,.219-.112.4-.249.4Z" transform="translate(-44.996 -1038.994)" class="icon-path"/>
</svg>
