<svg xmlns="http://www.w3.org/2000/svg" width="16" height="13" viewBox="0 0 16 13">
    <path d="M53.667,1287v-4.756l1.609-1.743-1.609-1.743V1274h6A1.394,1.394,0,0,1,61,1275.444v10.111A1.394,1.394,0,0,1,59.666,1287Zm.666-3.611a.7.7,0,0,0,.667.722h2.667a.724.724,0,0,0,0-1.444H55A.7.7,0,0,0,54.333,1283.388Zm1.334-2.889a.7.7,0,0,0,.667.722h2a.724.724,0,0,0,0-1.444h-2A.7.7,0,0,0,55.667,1280.5Zm-1.334-2.889a.7.7,0,0,0,.667.722h2.667a.724.724,0,0,0,0-1.444H55A.7.7,0,0,0,54.333,1277.61Zm-8,9.389A1.393,1.393,0,0,1,45,1285.555v-10.111A1.393,1.393,0,0,1,46.333,1274h6v5.354l1.057,1.146-1.057,1.146V1287Zm.667-3.611a.7.7,0,0,0,.667.722h2.667a.724.724,0,0,0,0-1.444H47.667A.7.7,0,0,0,47,1283.388Zm.667-2.889a.7.7,0,0,0,.667.722H51a.724.724,0,0,0,0-1.444H48.334A.7.7,0,0,0,47.667,1280.5ZM47,1277.61a.7.7,0,0,0,.667.722h2.667a.724.724,0,0,0,0-1.444H47.667A.7.7,0,0,0,47,1277.61Z" transform="translate(-45 -1274)" class="icon-path"/>
</svg>
