<svg xmlns="http://www.w3.org/2000/svg" width="16" height="14" viewBox="0 0 16 14">
    <path d="M47.077,1003v-1.609h1.4v-1.446H45V989H61v10.945H57.526v1.446h1.4V1003Zm8.674-7.93v1.495h2.127v1.091H59.45v-1.091l.319.071v-1.273l-.319-.293v-3.552H58.375Zm-7.8,2.586H49.52v-1.091h.729V995.07H49.52v-3.552H48.444l-2.214,3.845v1.273l1.717-.071Zm4.266-6.165a2.142,2.142,0,0,0-.695.559,2.628,2.628,0,0,0-.459.844,3.529,3.529,0,0,0,0,2.137,2.619,2.619,0,0,0,.459.844,2.093,2.093,0,0,0,.695.554,2.024,2.024,0,0,0,1.746,0,2.1,2.1,0,0,0,.7-.554,2.646,2.646,0,0,0,.459-.844,3.529,3.529,0,0,0,0-2.137q-.028-.083-.06-.162.006.079.006.166a1.314,1.314,0,0,1-.138.646.4.4,0,0,1-.353.246.412.412,0,0,1-.366-.246,1.314,1.314,0,0,1-.138-.646,1.335,1.335,0,0,1,.138-.649.411.411,0,0,1,.366-.249l.045,0a2.136,2.136,0,0,0-.656-.512,1.991,1.991,0,0,0-1.746,0Zm5.78,2.279.618-.829v.829Z" transform="translate(-45 -988.999)" class="icon-path"/>
</svg>
