<svg xmlns="http://www.w3.org/2000/svg" width="405.79" height="872.801" viewBox="0 0 405.79 872.801"><defs><style>.a{fill:#e6e6e6;}.a,.b{stroke:#000;stroke-miterlimit:10;stroke-width:0.25px;}.b{fill:#f15a24;}</style></defs><g transform="translate(-763.136 -1362.321)"><path class="a" d="M956.294,2225.6c0,5.188-15.09,9.393-33.7,9.393s-33.7-4.205-33.7-9.393V2140.99l14.98-560.855h37.448l14.98,560.855Z"/><path class="b" d="M956.294,2140.99c0,5.188-15.09,9.393-33.7,9.393s-33.7-4.205-33.7-9.393V2225.6c0,5.188,15.09,9.393,33.7,9.393s33.7-4.205,33.7-9.393Z"/><path class="a" d="M933.123,1609.285l-46.755-23.9c-3.505,0-4.774-26.64-3.5-30.144l23.663-28.405c1.6-3.131,5.15-6.344,8.654-6.344h36.971a6.249,6.249,0,0,1,6.134,6.344l.172,29.065a34.506,34.506,0,0,1-.823,7.694l-15.863,39.343C940.5,1606.444,936.627,1609.285,933.123,1609.285Z"/><rect class="a" width="59.906" height="58.299" rx="6.332" transform="translate(881.872 1550.986)"/><circle class="a" cx="32.351" cy="32.351" r="32.351" transform="translate(879.474 1547.784)"/><path class="a" d="M927.084,1586.5h6.978a1.983,1.983,0,0,0,.568-1.136c0-.568-1.46-2.677-1.46-5.031v-.392c0-2.353,1.46-4.463,1.46-5.031a1.983,1.983,0,0,0-.568-1.136h-6.978Z"/><path class="a" d="M933.016,1585.387l232.075-12.122a3.9,3.9,0,0,0,3.621-4.687l-2.343-11.383a3.907,3.907,0,0,0-3.743-3.117l-215.044-4.547a5.3,5.3,0,0,0-5.4,4.849c-.569,6.688-2.3,18.065-7.553,20.64C927.084,1578.722,933.016,1585.387,933.016,1585.387Z"/><line class="a" y1="5.851" x2="198.037" transform="translate(949.61 1569.057)"/><path class="a" d="M905.771,1559.152,779.237,1364.23a3.906,3.906,0,0,0-5.871-.792l-8.686,7.721a3.905,3.905,0,0,0-.828,4.8l103.584,188.507a5.3,5.3,0,0,0,6.9,2.252c6.077-2.851,16.8-7.038,21.651-3.78C902.965,1567.622,905.771,1559.152,905.771,1559.152Z"/><path class="a" d="M909.7,1563.734l-3.489-6.044a1.984,1.984,0,0,0-1.268.076c-.492.284-1.589,2.6-3.627,3.781l-.339.195c-2.038,1.177-4.595.967-5.087,1.251a1.983,1.983,0,0,0-.7,1.06l3.489,6.044Z"/><line class="a" x1="104.085" y1="168.579" transform="translate(784.314 1381.441)"/><path class="a" d="M896.676,1595.867l-105.54,207.044a3.905,3.905,0,0,0,2.249,5.48l11.029,3.661a3.9,3.9,0,0,0,4.571-1.682l111.46-183.96a5.3,5.3,0,0,0-1.5-7.1c-5.508-3.838-14.493-11.028-14.1-16.861C905.414,1594.063,896.676,1595.867,896.676,1595.867Z"/><path class="a" d="M898.679,1590.174l-3.489,6.044a1.983,1.983,0,0,0,.7,1.06c.492.284,3.049.074,5.087,1.25l.339.2c2.038,1.177,3.135,3.5,3.627,3.781a1.984,1.984,0,0,0,1.268.076l3.489-6.044Z"/><line class="a" x1="93.951" y2="174.43" transform="translate(803.502 1615.477)"/><circle class="a" cx="18.724" cy="18.724" r="18.724" transform="translate(893.1 1561.411)"/></g></svg>